<svg xmlns="http://www.w3.org/2000/svg" width="30" height="26" viewBox="0 0 30 26"><path d="M29.318,0H.682A.718.718,0,0,0,0,.75v1.5A.718.718,0,0,0,.682,3H29.318A.718.718,0,0,0,30,2.25V.75A.718.718,0,0,0,29.318,0Z" transform="translate(0 12)" fill="#fffefe"/><path d="M14.318,0H.682A.718.718,0,0,0,0,.75v1.5A.718.718,0,0,0,.682,3H14.318A.718.718,0,0,0,15,2.25V.75A.718.718,0,0,0,14.318,0Z" transform="translate(0 23)" fill="#fffefe"/><path d="M14.318,0H.682A.718.718,0,0,0,0,.75v1.5A.718.718,0,0,0,.682,3H14.318A.718.718,0,0,0,15,2.25V.75A.718.718,0,0,0,14.318,0Z" transform="translate(15)" fill="#fffefe"/></svg>