<svg xmlns="http://www.w3.org/2000/svg" xmlns:xlink="http://www.w3.org/1999/xlink" width="105" height="105" viewBox="0 0 105 105">
  <defs>
    <filter id="Oval" x="0" y="0" width="105" height="105" filterUnits="userSpaceOnUse">
      <feOffset dy="5" input="SourceAlpha"/>
      <feGaussianBlur stdDeviation="5" result="blur"/>
      <feFlood flood-color="#475cd6"/>
      <feComposite operator="in" in2="blur"/>
      <feComposite in="SourceGraphic"/>
    </filter>
  </defs>
  <g id="Play" transform="translate(15 10)">
    <g transform="matrix(1, 0, 0, 1, -15, -10)" filter="url(#Oval)">
      <circle id="Oval-2" data-name="Oval" cx="37.5" cy="37.5" r="37.5" transform="translate(15 10)" fill="#fece00"/>
    </g>
    <g id="_48px_button-play" data-name="48px_button-play" transform="translate(31 25)">
      <path id="Path" d="M.692,26A.688.688,0,0,1,0,25.316V.684A.683.683,0,0,1,.383.072a.7.7,0,0,1,.725.065L17.723,12.453a.679.679,0,0,1,0,1.095L1.108,25.863A.694.694,0,0,1,.692,26Z" fill="#fff"/>
    </g>
  </g>
</svg>
